<svg width="40" height="40" viewBox="0 0 40 40" fill="none" xmlns="http://www.w3.org/2000/svg">
<g filter="url(#filter0_i_1179_36)">
<path fill-rule="evenodd" clip-rule="evenodd" d="M22.4717 7.73333C22.3039 8.01274 22.1568 8.30407 22.0317 8.60499C22.9183 8.84499 23.7533 9.23833 24.52 9.75167C26.095 8.725 27.9167 8.20167 29.815 8.535C32.6033 9.02667 34.59 11.1867 35.6933 13.8183C36.8033 16.47 37.1333 19.8183 36.5267 23.2583C35.92 26.6983 34.465 29.7317 32.515 31.8417C30.5783 33.9383 27.9717 35.2883 25.185 34.7967C24.569 34.687 23.9714 34.4912 23.41 34.215C22.3471 34.7304 21.1813 34.9988 20 35C18.79 35 17.6417 34.7167 16.5917 34.2167C16.0296 34.4925 15.4315 34.6877 14.815 34.7967C12.0283 35.2883 9.42168 33.9383 7.48501 31.8433C5.53501 29.7317 4.07834 26.6983 3.47334 23.26C2.86668 19.8183 3.19668 16.47 4.30668 13.82C5.41001 11.1867 7.39668 9.02666 10.185 8.53666C12.0833 8.20166 13.905 8.725 15.48 9.75333C16.4097 9.12229 17.4573 8.68576 18.56 8.47C18.79 7.62 19.1733 6.75 19.6133 6.01833C19.9833 5.39833 20.455 4.77667 21.0183 4.28667C21.565 3.81333 22.3567 3.33333 23.3333 3.33333C23.7754 3.32471 24.2027 3.49204 24.5214 3.79851C24.84 4.10497 25.0239 4.52547 25.0325 4.9675C25.0411 5.40953 24.8738 5.83687 24.5673 6.15553C24.2609 6.47419 23.8404 6.65805 23.3983 6.66667C22.99 6.86667 22.6933 7.36167 22.4717 7.73333ZM14.1667 20.9967C13.7839 21.2177 13.329 21.2776 12.902 21.1632C12.4751 21.0488 12.111 20.7695 11.89 20.3867L10.2233 17.5C10.0585 17.2145 9.98194 16.8865 10.0035 16.5575C10.025 16.2285 10.1437 15.9133 10.3444 15.6518C10.5451 15.3902 10.8189 15.1941 11.1311 15.0881C11.4433 14.9822 11.7799 14.9713 12.0983 15.0567L16.6517 16.2767C16.9701 16.362 17.256 16.5399 17.4734 16.7877C17.6907 17.0356 17.8296 17.3423 17.8726 17.6691C17.9156 17.996 17.8607 18.3282 17.7149 18.6238C17.5691 18.9195 17.3388 19.1652 17.0533 19.33L14.1667 20.9967ZM28.11 20.3867C27.889 20.7695 27.525 21.0488 27.098 21.1632C26.6711 21.2776 26.2161 21.2177 25.8333 20.9967L22.9467 19.33C22.6612 19.1652 22.431 18.9195 22.2851 18.6238C22.1393 18.3282 22.0844 17.996 22.1274 17.6691C22.1704 17.3423 22.3093 17.0356 22.5267 16.7877C22.744 16.5399 23.0299 16.362 23.3483 16.2767L27.9017 15.0567C28.2201 14.9713 28.5567 14.9822 28.8689 15.0881C29.1812 15.1941 29.4549 15.3902 29.6556 15.6518C29.8564 15.9133 29.975 16.2285 29.9965 16.5575C30.0181 16.8865 29.9416 17.2145 29.7767 17.5L28.11 20.3867ZM15.915 26.52C16.0803 26.6439 16.2847 26.704 16.4908 26.6893C16.6968 26.6746 16.8906 26.5861 17.0367 26.44C17.8227 25.6543 18.8886 25.2129 20 25.2129C21.1114 25.2129 22.1773 25.6543 22.9633 26.44C23.1094 26.5861 23.3032 26.6746 23.5093 26.6893C23.7153 26.704 23.9197 26.6439 24.085 26.52L25.6683 25.3333C26.022 25.0681 26.4665 24.9542 26.904 25.0168C27.3416 25.0793 27.7365 25.313 28.0017 25.6667C28.2669 26.0203 28.3808 26.4648 28.3183 26.9024C28.2557 27.34 28.022 27.7348 27.6683 28L26.085 29.1867C25.2778 29.7918 24.2794 30.0855 23.2731 30.0139C22.2668 29.9422 21.32 29.5101 20.6067 28.7967C20.4457 28.6359 20.2275 28.5455 20 28.5455C19.7725 28.5455 19.5543 28.6359 19.3933 28.7967C18.68 29.5101 17.7333 29.9422 16.7269 30.0139C15.7206 30.0855 14.7222 29.7918 13.915 29.1867L12.3333 28C12.1582 27.8687 12.0107 27.7042 11.8992 27.5158C11.7877 27.3275 11.7144 27.119 11.6834 26.9024C11.6525 26.6857 11.6645 26.4651 11.7188 26.253C11.7731 26.041 11.8687 25.8418 12 25.6667C12.1313 25.4916 12.2959 25.3441 12.4842 25.2325C12.6725 25.121 12.881 25.0477 13.0976 25.0168C13.3143 24.9858 13.535 24.9978 13.747 25.0521C13.959 25.1065 14.1582 25.202 14.3333 25.3333L15.915 26.52Z" fill="#FF7B00"/>
<path d="M14.1667 20.9967C13.7839 21.2177 13.329 21.2776 12.902 21.1632C12.4751 21.0488 12.111 20.7695 11.89 20.3867L10.2233 17.5C10.0585 17.2145 9.98195 16.8865 10.0035 16.5575C10.025 16.2285 10.1437 15.9133 10.3444 15.6518C10.5451 15.3902 10.8189 15.1941 11.1311 15.0881C11.4433 14.9822 11.7799 14.9713 12.0983 15.0567L16.6517 16.2767C16.9701 16.362 17.256 16.5399 17.4734 16.7877C17.6907 17.0356 17.8296 17.3423 17.8726 17.6691C17.9156 17.996 17.8607 18.3282 17.7149 18.6238C17.5691 18.9195 17.3388 19.1652 17.0533 19.33L14.1667 20.9967Z" fill="#CD4D00"/>
<path d="M28.11 20.3867C27.889 20.7695 27.525 21.0488 27.098 21.1632C26.6711 21.2776 26.2161 21.2177 25.8333 20.9967L22.9467 19.33C22.6612 19.1652 22.431 18.9195 22.2851 18.6238C22.1393 18.3282 22.0844 17.996 22.1274 17.6691C22.1704 17.3423 22.3093 17.0356 22.5267 16.7877C22.744 16.5399 23.0299 16.362 23.3483 16.2767L27.9017 15.0567C28.2201 14.9713 28.5567 14.9822 28.8689 15.0881C29.1812 15.1941 29.4549 15.3902 29.6556 15.6518C29.8564 15.9133 29.975 16.2285 29.9965 16.5575C30.0181 16.8865 29.9416 17.2145 29.7767 17.5L28.11 20.3867Z" fill="#CD4D00"/>
<path d="M15.915 26.52C16.0803 26.6439 16.2847 26.704 16.4908 26.6893C16.6968 26.6746 16.8906 26.5861 17.0367 26.44C17.8227 25.6543 18.8886 25.2129 20 25.2129C21.1114 25.2129 22.1773 25.6543 22.9633 26.44C23.1094 26.5861 23.3032 26.6746 23.5093 26.6893C23.7153 26.704 23.9197 26.6439 24.085 26.52L25.6683 25.3333C26.022 25.0681 26.4665 24.9542 26.904 25.0168C27.3416 25.0793 27.7365 25.313 28.0017 25.6667C28.2669 26.0203 28.3808 26.4648 28.3183 26.9024C28.2557 27.34 28.022 27.7348 27.6683 28L26.085 29.1867C25.2778 29.7918 24.2794 30.0855 23.2731 30.0139C22.2668 29.9422 21.32 29.5101 20.6067 28.7967C20.4457 28.6359 20.2275 28.5455 20 28.5455C19.7725 28.5455 19.5543 28.6359 19.3933 28.7967C18.68 29.5101 17.7333 29.9422 16.7269 30.0139C15.7206 30.0855 14.7222 29.7918 13.915 29.1867L12.3333 28C12.1582 27.8687 12.0107 27.7042 11.8992 27.5158C11.7877 27.3275 11.7144 27.119 11.6834 26.9024C11.6525 26.6857 11.6645 26.4651 11.7188 26.253C11.7731 26.041 11.8687 25.8418 12 25.6667C12.1313 25.4916 12.2959 25.3441 12.4842 25.2325C12.6725 25.121 12.881 25.0477 13.0976 25.0168C13.3143 24.9858 13.535 24.9978 13.747 25.0521C13.959 25.1065 14.1582 25.202 14.3333 25.3333L15.915 26.52Z" fill="#CD4D00"/>
<path d="M23.3333 3.583H23.3381C23.7138 3.57567 24.0771 3.71811 24.3479 3.9785C24.6188 4.23901 24.7751 4.59691 24.7825 4.97264C24.7897 5.34828 24.6474 5.71161 24.387 5.98241C24.1265 6.25308 23.7693 6.40957 23.3938 6.41698L23.3381 6.41796L23.2883 6.44237C23.0355 6.56626 22.8314 6.77317 22.6682 6.98143C22.5042 7.19079 22.3668 7.42046 22.2571 7.60448C22.0831 7.89429 21.9309 8.19666 21.801 8.50878L21.6917 8.77147L21.9661 8.84667C22.8243 9.07897 23.6351 9.45949 24.3811 9.95897L24.5178 10.0518L24.6565 9.96093C26.0945 9.02358 27.7298 8.52524 29.4309 8.73046L29.7717 8.78124C32.4474 9.25309 34.3795 11.3303 35.4631 13.915C36.5519 16.5162 36.8801 19.815 36.2805 23.2149C35.6809 26.6149 34.2441 29.6021 32.3313 31.6719C30.4887 33.6668 28.0598 34.9411 25.4788 34.5899L25.2288 34.5508C24.6359 34.4453 24.0611 34.2561 23.5208 33.9902L23.4104 33.9365L23.301 33.9902C22.2722 34.4892 21.1437 34.7488 20.0002 34.75C18.8302 34.75 17.7182 34.4763 16.6995 33.9912L16.5901 33.9395L16.4817 33.9922C15.9408 34.2576 15.3651 34.4459 14.7717 34.5508C12.0977 35.0226 9.57036 33.7315 7.66822 31.6738C5.75541 29.6024 4.31792 26.6148 3.71998 23.2168C3.12039 19.8153 3.44862 16.5164 4.53736 13.917C5.62104 11.3306 7.55319 9.25337 10.2288 8.78319C12.0517 8.46157 13.8094 8.96157 15.343 9.96288L15.4827 10.0537L15.6204 9.95995C16.522 9.34794 17.5382 8.92512 18.6077 8.71581L18.761 8.68553L18.801 8.53514C19.0245 7.70932 19.3984 6.86079 19.8274 6.14745L19.8284 6.14647C20.1891 5.54199 20.6441 4.94242 21.1819 4.4746C21.7054 4.02143 22.4411 3.58303 23.3333 3.583ZM26.9397 24.7695C26.4367 24.6977 25.9254 24.8281 25.5188 25.1328L23.9348 26.3203C23.8177 26.4079 23.6725 26.4499 23.5266 26.4395C23.3808 26.429 23.2433 26.367 23.1399 26.2637V26.2627C22.3071 25.4304 21.1777 24.963 20.0002 24.9629C18.8226 24.9629 17.6925 25.4302 16.8596 26.2627V26.2637C16.7562 26.367 16.6188 26.4291 16.4729 26.4395C16.3269 26.4499 16.1818 26.4081 16.0647 26.3203L14.4836 25.1338C14.2823 24.9828 14.0527 24.872 13.8088 24.8096C13.5652 24.7472 13.3117 24.734 13.0627 24.7695C12.8136 24.8051 12.5733 24.8893 12.3567 25.0176C12.1402 25.1458 11.951 25.3153 11.8 25.5166C11.649 25.718 11.5393 25.9476 11.4768 26.1914C11.4144 26.4351 11.4003 26.6885 11.4358 26.9375C11.4714 27.1867 11.5556 27.427 11.6838 27.6436C11.812 27.86 11.9816 28.0492 12.1829 28.2002L13.7649 29.3867C14.6202 30.0279 15.6782 30.3395 16.7444 30.2637C17.8107 30.1878 18.8147 29.7296 19.5706 28.9736L19.5696 28.9727C19.6836 28.8588 19.8391 28.7959 20.0002 28.7959C20.121 28.796 20.2381 28.8315 20.3372 28.8975L20.4299 28.9736C21.1858 29.7295 22.1889 30.1877 23.2551 30.2637C24.3214 30.3396 25.3793 30.0278 26.2346 29.3867L27.8186 28.2002C28.2252 27.8952 28.4938 27.4407 28.5657 26.9375C28.6375 26.4344 28.5064 25.9232 28.2014 25.5166C27.8965 25.1101 27.4427 24.8415 26.9397 24.7695ZM26.8684 25.2647C27.2404 25.3178 27.5766 25.5158 27.802 25.8164C28.0274 26.117 28.1237 26.4952 28.0706 26.8672C28.0174 27.2389 27.8191 27.5744 27.5188 27.7998L25.9348 28.9863C25.1759 29.5553 24.2374 29.8319 23.2913 29.7647C22.4039 29.7015 21.5654 29.3401 20.9114 28.7422L20.7834 28.6201C20.5757 28.4125 20.2939 28.296 20.0002 28.2959C19.7433 28.2959 19.4952 28.3846 19.2981 28.5459L19.217 28.6201C18.5462 29.291 17.6555 29.6973 16.7092 29.7647C15.7629 29.832 14.8238 29.5554 14.0647 28.9863L12.4836 27.7998C12.3349 27.6882 12.2093 27.5487 12.1145 27.3887C12.0197 27.2286 11.9572 27.0513 11.9309 26.8672C11.9046 26.6831 11.9151 26.4956 11.9612 26.3154C12.0074 26.1352 12.0888 25.9652 12.2004 25.8164C12.312 25.6677 12.4516 25.542 12.6116 25.4473C12.7716 25.3525 12.949 25.291 13.1331 25.2647C13.3172 25.2384 13.5047 25.2478 13.6848 25.294C13.8649 25.3401 14.0341 25.4217 14.1829 25.5332L15.7649 26.7197C15.9783 26.8797 16.243 26.9575 16.509 26.9385C16.7747 26.9194 17.0247 26.8055 17.2131 26.6172C17.9523 25.8783 18.9551 25.4629 20.0002 25.4629C21.0453 25.463 22.0473 25.8784 22.7864 26.6172C22.9749 26.8057 23.2255 26.9195 23.4915 26.9385C23.7575 26.9575 24.0212 26.8797 24.2346 26.7197L25.8186 25.5332C26.1191 25.3079 26.4966 25.2116 26.8684 25.2647ZM12.1633 14.8154C11.7972 14.7172 11.41 14.7298 11.051 14.8516C10.692 14.9734 10.3766 15.1992 10.1458 15.5C9.91516 15.8007 9.77896 16.1629 9.75416 16.541C9.73247 16.8722 9.79705 17.2026 9.94068 17.5L10.0071 17.625L11.6731 20.5117C11.9272 20.9519 12.3463 21.2727 12.8372 21.4043C13.3281 21.5358 13.8511 21.467 14.2913 21.2129L17.178 19.5469C17.5063 19.3574 17.771 19.0743 17.9387 18.7344C18.1064 18.3945 18.1698 18.0125 18.1204 17.6367C18.0709 17.2609 17.9112 16.9081 17.6614 16.6231C17.4114 16.338 17.0822 16.1333 16.7161 16.0352L12.1633 14.8154ZM28.9495 14.8516C28.5905 14.7298 28.2033 14.7173 27.8372 14.8154L23.2834 16.0352C22.9174 16.1333 22.589 16.3381 22.3391 16.6231C22.0892 16.9081 21.9286 17.2609 21.8792 17.6367C21.8298 18.0125 21.8932 18.3945 22.0608 18.7344C22.2285 19.0744 22.4932 19.3574 22.8215 19.5469L25.7083 21.2129C26.1484 21.467 26.6714 21.5358 27.1624 21.4043C27.6533 21.2728 28.0722 20.9519 28.3264 20.5117L29.9934 17.625C30.183 17.2967 30.2711 16.9193 30.2463 16.541C30.2215 16.1628 30.0845 15.8007 29.8538 15.5C29.623 15.1993 29.3084 14.9734 28.9495 14.8516ZM11.2112 15.3252C11.4765 15.2352 11.7628 15.2253 12.0334 15.2979L16.5872 16.5186C16.8576 16.5911 17.1008 16.7417 17.2854 16.9522C17.4701 17.1628 17.5887 17.4244 17.6252 17.7022C17.6617 17.9798 17.6144 18.2625 17.4905 18.5137C17.3665 18.7648 17.1705 18.9733 16.928 19.1133L14.0413 20.7803C13.7161 20.9679 13.3297 21.019 12.967 20.9219C12.6042 20.8247 12.2946 20.587 12.1067 20.2617L10.4397 17.375C10.2996 17.1324 10.2349 16.8537 10.2532 16.5742C10.2715 16.2946 10.3717 16.026 10.5422 15.8037C10.7128 15.5815 10.9459 15.4153 11.2112 15.3252ZM27.9661 15.2979C28.2367 15.2253 28.523 15.2352 28.7883 15.3252C29.0536 15.4152 29.2867 15.5815 29.4573 15.8037C29.6279 16.026 29.729 16.2946 29.7473 16.5742C29.7655 16.8537 29.6999 17.1324 29.5598 17.375L27.8938 20.2617C27.7059 20.5871 27.3963 20.8246 27.0334 20.9219C26.6705 21.0191 26.2836 20.9681 25.9583 20.7803L23.0715 19.1133C22.829 18.9733 22.633 18.7648 22.509 18.5137C22.3851 18.2625 22.3388 17.9798 22.3752 17.7022C22.4118 17.4244 22.5304 17.1628 22.7151 16.9522C22.8998 16.7417 23.1429 16.5911 23.4133 16.5186L27.9661 15.2979Z" stroke="#F66F00" stroke-width="0.5"/>
</g>
<defs>
<filter id="filter0_i_1179_36" x="3.1731" y="3.33273" width="33.6539" height="35.6673" filterUnits="userSpaceOnUse" color-interpolation-filters="sRGB">
<feFlood flood-opacity="0" result="BackgroundImageFix"/>
<feBlend mode="normal" in="SourceGraphic" in2="BackgroundImageFix" result="shape"/>
<feColorMatrix in="SourceAlpha" type="matrix" values="0 0 0 0 0 0 0 0 0 0 0 0 0 0 0 0 0 0 127 0" result="hardAlpha"/>
<feOffset dy="4"/>
<feGaussianBlur stdDeviation="5"/>
<feComposite in2="hardAlpha" operator="arithmetic" k2="-1" k3="1"/>
<feColorMatrix type="matrix" values="0 0 0 0 1 0 0 0 0 0.783333 0 0 0 0 0 0 0 0 0.5 0"/>
<feBlend mode="normal" in2="shape" result="effect1_innerShadow_1179_36"/>
</filter>
</defs>
</svg>
