<svg width="20" height="20" viewBox="0 0 20 20" fill="none" xmlns="http://www.w3.org/2000/svg">
<path d="M17.4875 10.405C17.4094 11.8518 16.9139 13.245 16.0609 14.4162C15.2079 15.5874 14.0339 16.4864 12.6809 17.0046C11.3278 17.5228 9.85361 17.638 8.43649 17.3363C7.01936 17.0345 5.71997 16.3288 4.69539 15.3043C3.67082 14.2798 2.96492 12.9805 2.66302 11.5634C2.36113 10.1463 2.47617 8.67212 2.99424 7.31901C3.51231 5.9659 4.41122 4.79182 5.58232 3.9387C6.75342 3.08557 8.14656 2.58992 9.59334 2.51167C9.93084 2.49333 10.1075 2.895 9.92834 3.18083C9.32909 4.13963 9.07249 5.27322 9.20042 6.39663C9.32836 7.52003 9.83328 8.5669 10.6328 9.3664C11.4323 10.1659 12.4792 10.6708 13.6026 10.7988C14.726 10.9267 15.8595 10.6701 16.8183 10.0708C17.105 9.89167 17.5058 10.0675 17.4875 10.405Z" stroke="currentColor" stroke-width="1.5" stroke-linecap="round" stroke-linejoin="round"/>
</svg>
