<svg width="140" height="64" viewBox="0 0 140 64" fill="none" xmlns="http://www.w3.org/2000/svg">
<path d="M32.5 58.6667C47.2276 58.6667 59.1666 46.7276 59.1666 32C59.1666 17.2724 47.2276 5.33333 32.5 5.33333C17.7724 5.33333 5.83331 17.2724 5.83331 32C5.83331 46.7276 17.7724 58.6667 32.5 58.6667Z" stroke="#F9B69F" stroke-width="4" stroke-linecap="round" stroke-linejoin="round"/>
<path d="M38.66 21.3333L53.9666 47.84" stroke="#F8A1B4" stroke-width="4" stroke-linecap="round" stroke-linejoin="round"/>
<path d="M26.34 21.3333H56.9534" stroke="#F8A1B4" stroke-width="4" stroke-linecap="round" stroke-linejoin="round"/>
<path d="M20.18 32L35.4867 5.49333" stroke="#F8A1B4" stroke-width="4" stroke-linecap="round" stroke-linejoin="round"/>
<path d="M26.34 42.6667L11.0333 16.16" stroke="#F9B69F" stroke-width="4" stroke-linecap="round" stroke-linejoin="round"/>
<path d="M38.66 42.6667H8.04669" stroke="#3DBBA3" stroke-width="4" stroke-linecap="round" stroke-linejoin="round"/>
<path d="M44.82 32L29.5133 58.5067" stroke="#3DBBA3" stroke-width="4" stroke-linecap="round" stroke-linejoin="round"/>
<path d="M70.676 27V17.144V10.36H73.652L73.428 16.088H73.94C74.196 14.68 74.5587 13.528 75.028 12.632C75.4973 11.736 76.084 11.064 76.788 10.616C77.492 10.168 78.324 9.944 79.284 9.944C80.3293 9.944 81.1827 10.2 81.844 10.712C82.5267 11.224 83.028 11.9387 83.348 12.856C83.6893 13.752 83.8707 14.808 83.892 16.024H84.34C84.5747 14.6587 84.9373 13.528 85.428 12.632C85.9187 11.736 86.5373 11.064 87.284 10.616C88.052 10.168 88.916 9.944 89.876 9.944C90.7507 9.944 91.5187 10.1147 92.18 10.456C92.8413 10.7973 93.396 11.3093 93.844 11.992C94.292 12.6533 94.6227 13.496 94.836 14.52C95.0493 15.5227 95.156 16.6853 95.156 18.008V27H91.668V18.424C91.668 17.2293 91.5613 16.2373 91.348 15.448C91.1347 14.6373 90.8147 14.04 90.388 13.656C89.9613 13.2507 89.4173 13.048 88.756 13.048C87.9667 13.048 87.2733 13.3253 86.676 13.88C86.0787 14.4347 85.5987 15.2133 85.236 16.216C84.8947 17.1973 84.692 18.3493 84.628 19.672V27H81.204V18.584C81.204 17.3467 81.0973 16.3227 80.884 15.512C80.6707 14.68 80.34 14.0613 79.892 13.656C79.4653 13.2507 78.9213 13.048 78.26 13.048C77.4493 13.048 76.7453 13.336 76.148 13.912C75.572 14.4667 75.1133 15.2453 74.772 16.248C74.4307 17.2507 74.228 18.4133 74.164 19.736V27H70.676ZM97.9897 27V10.36H101.478V27H97.9897ZM99.7497 7.8C99.0031 7.8 98.4377 7.65067 98.0537 7.352C97.6697 7.032 97.4777 6.56267 97.4777 5.944C97.4777 5.34667 97.6697 4.89867 98.0537 4.6C98.4377 4.28 99.0031 4.12 99.7497 4.12C100.496 4.12 101.062 4.28 101.446 4.6C101.83 4.89867 102.022 5.34667 102.022 5.944C102.022 6.54133 101.819 7 101.414 7.32C101.03 7.64 100.475 7.8 99.7497 7.8ZM104.553 27V17.208V10.36H107.593L107.337 16.088H107.849C108.105 14.68 108.479 13.528 108.969 12.632C109.481 11.736 110.121 11.064 110.889 10.616C111.679 10.168 112.617 9.944 113.705 9.944C115.583 9.944 116.991 10.6053 117.929 11.928C118.889 13.2507 119.369 15.2667 119.369 17.976V27H115.881V18.296C115.881 16.4613 115.604 15.1173 115.049 14.264C114.495 13.4107 113.673 12.984 112.585 12.984C111.625 12.984 110.815 13.2933 110.153 13.912C109.492 14.5093 108.98 15.3413 108.617 16.408C108.255 17.4533 108.063 18.6587 108.041 20.024V27H104.553ZM128.226 27.416C126.86 27.416 125.666 27.064 124.641 26.36C123.639 25.656 122.86 24.6533 122.306 23.352C121.772 22.0293 121.505 20.472 121.505 18.68C121.505 16.9307 121.761 15.4053 122.273 14.104C122.786 12.8027 123.532 11.7893 124.514 11.064C125.495 10.3387 126.69 9.976 128.097 9.976C129.228 9.976 130.167 10.2107 130.914 10.68C131.682 11.128 132.3 11.768 132.77 12.6C133.239 13.432 133.591 14.3813 133.826 15.448H134.37C134.263 14.744 134.156 14.0507 134.05 13.368C133.964 12.664 133.89 12.0027 133.826 11.384C133.762 10.744 133.73 10.168 133.73 9.656V4.568H137.25L137.218 19.096L137.25 27H134.178L134.306 22.2H133.826C133.57 23.288 133.196 24.2267 132.706 25.016C132.236 25.8053 131.628 26.4027 130.882 26.808C130.156 27.2133 129.271 27.416 128.226 27.416ZM129.186 24.472C129.932 24.472 130.583 24.3013 131.138 23.96C131.714 23.6187 132.194 23.1707 132.578 22.616C132.962 22.0613 133.25 21.464 133.442 20.824C133.634 20.1627 133.73 19.5333 133.73 18.936V18.52C133.73 18.0933 133.666 17.6347 133.538 17.144C133.431 16.632 133.26 16.1307 133.026 15.64C132.791 15.1493 132.492 14.7013 132.13 14.296C131.767 13.8693 131.34 13.5387 130.85 13.304C130.38 13.048 129.836 12.92 129.218 12.92C128.343 12.92 127.596 13.176 126.977 13.688C126.359 14.1787 125.889 14.8613 125.569 15.736C125.249 16.6107 125.089 17.6133 125.089 18.744C125.089 19.896 125.249 20.9093 125.569 21.784C125.911 22.6373 126.38 23.2987 126.977 23.768C127.596 24.2373 128.332 24.472 129.186 24.472ZM70.676 64.088V50.456V42.36H73.716L73.588 46.968L74.036 47C74.2707 45.912 74.6333 44.9947 75.124 44.248C75.6147 43.5013 76.2227 42.936 76.948 42.552C77.6947 42.1467 78.5693 41.944 79.572 41.944C81.044 41.944 82.2813 42.3067 83.284 43.032C84.308 43.7573 85.076 44.7813 85.588 46.104C86.1213 47.4053 86.388 48.9413 86.388 50.712C86.388 52.44 86.132 53.9653 85.62 55.288C85.108 56.5893 84.3507 57.6027 83.348 58.328C82.3667 59.0533 81.172 59.416 79.764 59.416C78.6547 59.416 77.716 59.192 76.948 58.744C76.2013 58.2747 75.5933 57.6347 75.124 56.824C74.6547 56.0133 74.292 55.1067 74.036 54.104H73.524C73.652 54.744 73.7587 55.384 73.844 56.024C73.9507 56.664 74.0253 57.2933 74.068 57.912C74.132 58.5093 74.164 59.0853 74.164 59.64V64.088H70.676ZM78.74 56.472C79.6147 56.472 80.3507 56.2267 80.948 55.736C81.5453 55.2453 82.004 54.5627 82.324 53.688C82.644 52.8133 82.804 51.8107 82.804 50.68C82.804 49.5067 82.644 48.4933 82.324 47.64C82.004 46.7867 81.5347 46.1253 80.916 45.656C80.2973 45.1867 79.5613 44.952 78.708 44.952C77.9613 44.952 77.3107 45.1227 76.756 45.464C76.2013 45.784 75.7213 46.2213 75.316 46.776C74.932 47.3093 74.644 47.896 74.452 48.536C74.26 49.176 74.164 49.816 74.164 50.456V50.872C74.164 51.2987 74.2173 51.768 74.324 52.28C74.452 52.7707 74.6333 53.272 74.868 53.784C75.124 54.2747 75.4227 54.7227 75.764 55.128C76.1267 55.5333 76.5533 55.864 77.044 56.12C77.556 56.3547 78.1213 56.472 78.74 56.472ZM92.6445 59.416C91.7485 59.416 90.9272 59.2453 90.1805 58.904C89.4552 58.5627 88.8792 58.0507 88.4525 57.368C88.0258 56.664 87.8125 55.7893 87.8125 54.744C87.8125 53.8693 87.9725 53.1333 88.2925 52.536C88.6125 51.9173 89.0925 51.4053 89.7325 51C90.3725 50.5733 91.1618 50.232 92.1005 49.976C93.0605 49.72 94.1698 49.5067 95.4285 49.336C96.2605 49.208 96.9218 49.0907 97.4125 48.984C97.9245 48.856 98.2872 48.6853 98.5005 48.472C98.7352 48.2373 98.8525 47.896 98.8525 47.448C98.8525 46.68 98.5752 46.04 98.0205 45.528C97.4872 45.016 96.6872 44.76 95.6205 44.76C95.0018 44.76 94.3938 44.8667 93.7965 45.08C93.2205 45.2933 92.7085 45.6453 92.2605 46.136C91.8338 46.6267 91.5565 47.288 91.4285 48.12L88.2925 47.256C88.4632 46.36 88.7618 45.5813 89.1885 44.92C89.6152 44.2587 90.1485 43.7147 90.7885 43.288C91.4285 42.84 92.1645 42.5093 92.9965 42.296C93.8498 42.0613 94.7565 41.944 95.7165 41.944C97.1672 41.944 98.3725 42.1893 99.3325 42.68C100.314 43.1707 101.05 43.928 101.54 44.952C102.031 45.9547 102.276 47.2453 102.276 48.824V52.152C102.276 52.8773 102.287 53.6347 102.309 54.424C102.351 55.192 102.394 55.9707 102.436 56.76C102.479 57.528 102.532 58.2747 102.597 59H99.4285C99.3858 58.296 99.3432 57.5813 99.3005 56.856C99.2792 56.1307 99.2578 55.384 99.2365 54.616H98.8205C98.5432 55.4907 98.1272 56.2907 97.5725 57.016C97.0392 57.7413 96.3565 58.328 95.5245 58.776C94.6925 59.2027 93.7325 59.416 92.6445 59.416ZM93.8605 56.728C94.3298 56.728 94.8098 56.6427 95.3005 56.472C95.7912 56.3013 96.2605 56.0453 96.7085 55.704C97.1778 55.3413 97.5938 54.8933 97.9565 54.36C98.3405 53.8267 98.6498 53.1867 98.8845 52.44V49.944L99.6845 50.008C99.3645 50.328 98.9378 50.5733 98.4045 50.744C97.8712 50.9147 97.2845 51.0533 96.6445 51.16C96.0045 51.2453 95.3645 51.352 94.7245 51.48C94.0845 51.5867 93.4978 51.7467 92.9645 51.96C92.4525 52.152 92.0365 52.44 91.7165 52.824C91.3965 53.1867 91.2365 53.688 91.2365 54.328C91.2365 55.096 91.4712 55.6933 91.9405 56.12C92.4312 56.5253 93.0712 56.728 93.8605 56.728ZM111.193 59.416C109.828 59.416 108.633 59.064 107.609 58.36C106.606 57.656 105.828 56.6533 105.273 55.352C104.74 54.0293 104.473 52.472 104.473 50.68C104.473 48.9307 104.729 47.4053 105.241 46.104C105.753 44.8027 106.5 43.7893 107.481 43.064C108.462 42.3387 109.657 41.976 111.065 41.976C112.196 41.976 113.134 42.2107 113.881 42.68C114.649 43.128 115.268 43.768 115.737 44.6C116.206 45.432 116.558 46.3813 116.793 47.448H117.337C117.23 46.744 117.124 46.0507 117.017 45.368C116.932 44.664 116.857 44.0027 116.793 43.384C116.729 42.744 116.697 42.168 116.697 41.656V36.568H120.217L120.185 51.096L120.217 59H117.145L117.273 54.2H116.793C116.537 55.288 116.164 56.2267 115.673 57.016C115.204 57.8053 114.596 58.4027 113.849 58.808C113.124 59.2133 112.238 59.416 111.193 59.416ZM112.153 56.472C112.9 56.472 113.55 56.3013 114.105 55.96C114.681 55.6187 115.161 55.1707 115.545 54.616C115.929 54.0613 116.217 53.464 116.409 52.824C116.601 52.1627 116.697 51.5333 116.697 50.936V50.52C116.697 50.0933 116.633 49.6347 116.505 49.144C116.398 48.632 116.228 48.1307 115.993 47.64C115.758 47.1493 115.46 46.7013 115.097 46.296C114.734 45.8693 114.308 45.5387 113.817 45.304C113.348 45.048 112.804 44.92 112.185 44.92C111.31 44.92 110.564 45.176 109.945 45.688C109.326 46.1787 108.857 46.8613 108.537 47.736C108.217 48.6107 108.057 49.6133 108.057 50.744C108.057 51.896 108.217 52.9093 108.537 53.784C108.878 54.6373 109.348 55.2987 109.945 55.768C110.564 56.2373 111.3 56.472 112.153 56.472Z" fill="#0C0D0E"/>
</svg>
