<svg width="138" height="32" viewBox="0 0 138 32" fill="none" xmlns="http://www.w3.org/2000/svg">
<path d="M20.69 13.67C21.14 13.2193 21.4892 12.6781 21.7146 12.0823C21.9399 11.4866 22.0362 10.8497 21.997 10.214C21.9579 9.57822 21.7842 8.95801 21.4875 8.39437C21.1908 7.83073 20.7779 7.3365 20.2759 6.94436C19.774 6.55222 19.1945 6.27111 18.5758 6.11961C17.9571 5.96811 17.3134 5.94968 16.687 6.06554C16.0607 6.18139 15.4661 6.42889 14.9425 6.79168C14.419 7.15446 13.9784 7.62426 13.65 8.17C12.5609 7.95047 11.439 7.95047 10.35 8.17C10.0215 7.62426 9.58093 7.15446 9.05738 6.79168C8.53382 6.42889 7.93922 6.18139 7.31289 6.06554C6.68655 5.94968 6.04276 5.96811 5.42408 6.11961C4.8054 6.27111 4.22593 6.55222 3.72399 6.94436C3.22205 7.3365 2.80908 7.83073 2.51238 8.39437C2.21568 8.95801 2.04203 9.57822 2.00289 10.214C1.96375 10.8497 2.06003 11.4866 2.28535 12.0823C2.51067 12.6781 2.8599 13.2193 3.30995 13.67C2.48995 15.2 1.99995 16.88 1.99995 18.5C1.99995 23.47 6.47995 26 12 26C17.52 26 22 23.47 22 18.5C22 16.88 21.52 15.2 20.7 13.67" fill="#FF2C00"/>
<path d="M20.69 13.67C21.14 13.2193 21.4892 12.6781 21.7146 12.0823C21.9399 11.4866 22.0362 10.8497 21.997 10.214C21.9579 9.57822 21.7842 8.95801 21.4875 8.39437C21.1908 7.83073 20.7779 7.3365 20.2759 6.94436C19.774 6.55222 19.1945 6.27111 18.5758 6.11961C17.9571 5.96811 17.3134 5.94968 16.687 6.06554C16.0607 6.18139 15.4661 6.42889 14.9425 6.79168C14.419 7.15446 13.9784 7.62426 13.65 8.17C12.5609 7.95047 11.439 7.95047 10.35 8.17C10.0215 7.62426 9.58093 7.15446 9.05738 6.79168C8.53382 6.42889 7.93922 6.18139 7.31289 6.06554C6.68655 5.94968 6.04276 5.96811 5.42408 6.11961C4.8054 6.27111 4.22593 6.55222 3.72399 6.94436C3.22205 7.3365 2.80908 7.83073 2.51238 8.39437C2.21568 8.95801 2.04203 9.57822 2.00289 10.214C1.96375 10.8497 2.06003 11.4866 2.28535 12.0823C2.51067 12.6781 2.8599 13.2193 3.30995 13.67C2.48995 15.2 1.99995 16.88 1.99995 18.5C1.99995 23.47 6.47995 26 12 26C17.52 26 22 23.47 22 18.5C22 16.88 21.52 15.2 20.7 13.67" stroke="#FF2C00" stroke-width="2" stroke-linecap="round" stroke-linejoin="round"/>
<path d="M11.25 21.25H12.75L12 22L11.25 21.25Z" stroke="white" stroke-width="2" stroke-linecap="round" stroke-linejoin="round"/>
<path d="M15 16L17 18" stroke="white" stroke-width="2" stroke-linecap="round" stroke-linejoin="round"/>
<path d="M18 10.5C18 10.3674 17.9473 10.2402 17.8536 10.1464C17.7598 10.0527 17.6326 10 17.5 10" stroke="white" stroke-width="2" stroke-linecap="round" stroke-linejoin="round"/>
<path d="M6.00003 10.5C5.99936 10.4342 6.01183 10.3688 6.03672 10.3079C6.06161 10.2469 6.09842 10.1915 6.14498 10.145C6.19155 10.0984 6.24693 10.0616 6.3079 10.0367C6.36886 10.0118 6.43418 9.99933 6.50003 10" stroke="white" stroke-width="2" stroke-linecap="round" stroke-linejoin="round"/>
<path d="M9 16L7 18" stroke="white" stroke-width="2" stroke-linecap="round" stroke-linejoin="round"/>
<path d="M30.752 27V4.28H35.136L45.632 22.808V4.28H49.088V27H44.544L34.208 8.888V27H30.752ZM59.6592 27.384C58.0379 27.384 56.6192 27.0213 55.4032 26.296C54.1872 25.5707 53.2486 24.536 52.5872 23.192C51.9259 21.848 51.5952 20.28 51.5952 18.488C51.5952 16.6747 51.9259 15.1067 52.5872 13.784C53.2486 12.4613 54.1872 11.4373 55.4032 10.712C56.6192 9.96533 58.0379 9.592 59.6592 9.592C61.2806 9.592 62.6992 9.96533 63.9152 10.712C65.1313 11.4373 66.0699 12.4613 66.7313 13.784C67.3926 15.1067 67.7232 16.6747 67.7232 18.488C67.7232 20.28 67.3926 21.848 66.7313 23.192C66.0699 24.536 65.1313 25.5707 63.9152 26.296C62.6992 27.0213 61.2806 27.384 59.6592 27.384ZM59.6592 24.44C61.1099 24.44 62.2299 23.9173 63.0192 22.872C63.8086 21.8053 64.2032 20.344 64.2032 18.488C64.2032 16.632 63.8086 15.1813 63.0192 14.136C62.2299 13.0693 61.1099 12.536 59.6592 12.536C58.2299 12.536 57.1099 13.0693 56.2992 14.136C55.5099 15.1813 55.1152 16.632 55.1152 18.488C55.1152 20.344 55.5099 21.8053 56.2992 22.872C57.1099 23.9173 58.2299 24.44 59.6592 24.44ZM75.7742 27C74.1529 27 72.9582 26.6267 72.1902 25.88C71.4222 25.1333 71.0382 23.9707 71.0382 22.392V5.976H74.4302V22.136C74.4302 22.9253 74.6009 23.4693 74.9422 23.768C75.2836 24.0667 75.8062 24.216 76.5102 24.216H78.9422V27H75.7742ZM68.4462 12.76V9.976H78.9422V12.76H68.4462ZM85.578 27.384C83.8073 27.384 82.3887 26.9787 81.322 26.168C80.2767 25.3573 79.754 24.216 79.754 22.744C79.754 21.272 80.1913 20.1307 81.066 19.32C81.962 18.488 83.338 17.8907 85.194 17.528L91.05 16.408C91.05 15.0853 90.7407 14.104 90.122 13.464C89.5033 12.8027 88.586 12.472 87.37 12.472C86.282 12.472 85.4287 12.7173 84.81 13.208C84.1913 13.6773 83.7647 14.3813 83.53 15.32L80.042 15.096C80.362 13.3893 81.1513 12.0453 82.41 11.064C83.69 10.0827 85.3433 9.592 87.37 9.592C89.674 9.592 91.4233 10.2107 92.618 11.448C93.834 12.664 94.442 14.3813 94.442 16.6V23.224C94.442 23.6293 94.506 23.9173 94.634 24.088C94.7833 24.2373 95.018 24.312 95.338 24.312H95.946V27C95.8393 27.0213 95.6687 27.0427 95.434 27.064C95.1993 27.0853 94.954 27.096 94.698 27.096C93.9727 27.096 93.3433 26.9787 92.81 26.744C92.298 26.5093 91.914 26.1253 91.658 25.592C91.402 25.0373 91.274 24.3013 91.274 23.384L91.626 23.544C91.4553 24.2907 91.082 24.952 90.506 25.528C89.9513 26.104 89.2367 26.5627 88.362 26.904C87.5087 27.224 86.5807 27.384 85.578 27.384ZM86.122 24.696C87.146 24.696 88.0207 24.504 88.746 24.12C89.4713 23.7147 90.0367 23.16 90.442 22.456C90.8473 21.752 91.05 20.952 91.05 20.056V18.968L86.058 19.928C85.034 20.12 84.3087 20.4293 83.882 20.856C83.4767 21.2613 83.274 21.784 83.274 22.424C83.274 23.1493 83.5193 23.7147 84.01 24.12C84.522 24.504 85.226 24.696 86.122 24.696ZM105.854 27.384C104.68 27.384 103.635 27.128 102.718 26.616C101.822 26.0827 101.128 25.3573 100.638 24.44L100.542 27H97.3737V4.28H100.766V12.376C101.214 11.6293 101.875 10.9787 102.75 10.424C103.646 9.86933 104.68 9.592 105.854 9.592C107.326 9.592 108.606 9.95467 109.694 10.68C110.782 11.4053 111.614 12.44 112.19 13.784C112.787 15.1067 113.086 16.6747 113.086 18.488C113.086 20.3013 112.787 21.88 112.19 23.224C111.614 24.5467 110.782 25.5707 109.694 26.296C108.606 27.0213 107.326 27.384 105.854 27.384ZM105.31 24.44C106.611 24.44 107.646 23.9173 108.414 22.872C109.182 21.8053 109.566 20.344 109.566 18.488C109.566 16.632 109.182 15.1813 108.414 14.136C107.646 13.0693 106.622 12.536 105.342 12.536C104.382 12.536 103.56 12.7707 102.878 13.24C102.195 13.7093 101.672 14.392 101.31 15.288C100.947 16.1627 100.766 17.2293 100.766 18.488C100.766 19.704 100.947 20.76 101.31 21.656C101.672 22.552 102.195 23.2453 102.878 23.736C103.56 24.2053 104.371 24.44 105.31 24.44ZM119.118 27C118.009 27 117.113 26.712 116.43 26.136C115.748 25.56 115.406 24.6427 115.406 23.384V4.28H118.798V23.064C118.798 23.448 118.894 23.736 119.086 23.928C119.3 24.12 119.598 24.216 119.982 24.216H121.326V27H119.118ZM123.242 31.8V29.016H125.322C125.898 29.016 126.325 28.9307 126.602 28.76C126.88 28.5893 127.093 28.3013 127.242 27.896L127.786 26.488H126.731L120.586 9.976H124.17L128.842 23.352L133.291 9.976H136.906L130.123 28.984C129.781 29.9653 129.269 30.68 128.587 31.128C127.925 31.576 126.997 31.8 125.802 31.8H123.242Z" fill="black"/>
</svg>
