<svg width="24" height="24" viewBox="0 0 24 24" fill="none" xmlns="http://www.w3.org/2000/svg">
<path d="M20.69 9.67C21.1401 9.21925 21.4893 8.6781 21.7146 8.08233C21.9399 7.48655 22.0362 6.84973 21.9971 6.21397C21.9579 5.57822 21.7843 4.95801 21.4876 4.39437C21.1909 3.83073 20.7779 3.3365 20.276 2.94436C19.774 2.55222 19.1946 2.27111 18.5759 2.11961C17.9572 1.96811 17.3134 1.94968 16.6871 2.06554C16.0607 2.18139 15.4661 2.42889 14.9426 2.79168C14.419 3.15446 13.9785 3.62426 13.65 4.17C12.561 3.95047 11.4391 3.95047 10.35 4.17C10.0216 3.62426 9.58099 3.15446 9.05744 2.79168C8.53389 2.42889 7.93928 2.18139 7.31295 2.06554C6.68661 1.94968 6.04282 1.96811 5.42414 2.11961C4.80546 2.27111 4.22599 2.55222 3.72405 2.94436C3.22211 3.3365 2.80914 3.83073 2.51244 4.39437C2.21574 4.95801 2.04209 5.57822 2.00295 6.21397C1.96381 6.84973 2.06009 7.48655 2.28541 8.08233C2.51073 8.6781 2.85996 9.21925 3.31001 9.67C2.49001 11.2 2.00001 12.88 2.00001 14.5C2.00001 19.47 6.48001 22 12 22C17.52 22 22 19.47 22 14.5C22 12.88 21.52 11.2 20.7 9.67" fill="black"/>
<path d="M20.69 9.67C21.1401 9.21925 21.4893 8.6781 21.7146 8.08233C21.9399 7.48655 22.0362 6.84973 21.9971 6.21397C21.9579 5.57822 21.7843 4.95801 21.4876 4.39437C21.1909 3.83073 20.7779 3.3365 20.276 2.94436C19.774 2.55222 19.1946 2.27111 18.5759 2.11961C17.9572 1.96811 17.3134 1.94968 16.6871 2.06554C16.0607 2.18139 15.4661 2.42889 14.9426 2.79168C14.419 3.15446 13.9785 3.62426 13.65 4.17C12.561 3.95047 11.4391 3.95047 10.35 4.17C10.0216 3.62426 9.58099 3.15446 9.05744 2.79168C8.53389 2.42889 7.93928 2.18139 7.31295 2.06554C6.68661 1.94968 6.04282 1.96811 5.42414 2.11961C4.80546 2.27111 4.22599 2.55222 3.72405 2.94436C3.22211 3.3365 2.80914 3.83073 2.51244 4.39437C2.21574 4.95801 2.04209 5.57822 2.00295 6.21397C1.96381 6.84973 2.06009 7.48655 2.28541 8.08233C2.51073 8.6781 2.85996 9.21925 3.31001 9.67C2.49001 11.2 2.00001 12.88 2.00001 14.5C2.00001 19.47 6.48001 22 12 22C17.52 22 22 19.47 22 14.5C22 12.88 21.52 11.2 20.7 9.67" stroke="black" stroke-width="2" stroke-linecap="round" stroke-linejoin="round"/>
<path d="M11.25 17.25H12.75L12 18L11.25 17.25Z" stroke="white" stroke-width="2" stroke-linecap="round" stroke-linejoin="round"/>
<path d="M15 12L17 14" stroke="white" stroke-width="2" stroke-linecap="round" stroke-linejoin="round"/>
<path d="M18 6.5C18 6.36739 17.9473 6.24021 17.8536 6.14645C17.7598 6.05268 17.6326 6 17.5 6" stroke="white" stroke-width="2" stroke-linecap="round" stroke-linejoin="round"/>
<path d="M6.00003 6.5C5.99936 6.43416 6.01183 6.36884 6.03672 6.30787C6.06161 6.24691 6.09842 6.19152 6.14498 6.14496C6.19155 6.0984 6.24693 6.06159 6.3079 6.0367C6.36886 6.01181 6.43418 5.99933 6.50003 6" stroke="white" stroke-width="2" stroke-linecap="round" stroke-linejoin="round"/>
<path d="M9 12L7 14" stroke="white" stroke-width="2" stroke-linecap="round" stroke-linejoin="round"/>
</svg>
